<svg width="39" height="39" viewBox="0 0 39 39" fill="none" xmlns="http://www.w3.org/2000/svg">
<g opacity="0.5">
<path d="M35.75 22.1001C36.1094 22.1001 36.3999 21.8089 36.3999 21.4501V18.8501C36.3999 18.4914 36.1094 18.2002 35.75 18.2002H32.4999V17.5501C32.4999 17.1914 32.2094 16.9001 31.85 16.9001C31.4905 16.9001 31.2 17.1914 31.2 17.5501V18.2001H13V17.5501C13 17.1914 12.7088 16.9001 12.35 16.9001C11.9913 16.9001 11.7 17.1914 11.7 17.5501V18.2001H8.45002C8.09125 18.2001 7.80005 18.4913 7.80005 18.8501V21.4501C7.80005 21.8089 8.09125 22.1001 8.45002 22.1001H12.35H31.85H35.75ZM9.1 20.8001V19.5001H35.1V20.8001H9.1Z" fill="black"/>
<path d="M23.3998 14.3C22.3488 14.3 21.6695 15.0989 21.5954 15.1906C21.3704 15.4668 21.4121 15.8705 21.687 16.098C21.9626 16.3261 22.3702 16.2865 22.6009 16.0148C22.6035 16.0103 22.9558 15.6001 23.3997 15.6001C23.8437 15.6001 24.1954 16.0103 24.1954 16.0103C24.3241 16.1683 24.5112 16.2502 24.7004 16.2502C24.8446 16.2502 24.989 16.2027 25.1099 16.1046C25.3887 15.8784 25.4303 15.4689 25.2041 15.1907C25.1301 15.0989 24.4508 14.3 23.3998 14.3Z" fill="black"/>
<path d="M35.75 27.3C36.1094 27.3 36.3999 27.0088 36.3999 26.65V24.05C36.3999 23.6913 36.1094 23.4 35.75 23.4H32.4999V22.7501C32.4999 22.3913 32.2094 22.1001 31.85 22.1001C31.4905 22.1001 31.2 22.3913 31.2 22.7501V23.4H13V22.7501C13 22.3913 12.7088 22.1001 12.35 22.1001C11.9913 22.1001 11.7 22.3913 11.7 22.7501V23.4H8.45002C8.09125 23.4 7.80005 23.6913 7.80005 24.05V26.65C7.80005 27.0088 8.09125 27.3 8.45002 27.3H12.35H31.85H35.75ZM9.1 25.9999V24.6999H35.1V25.9999H9.1Z" fill="black"/>
<path d="M26.7956 12.7596C26.9243 12.9182 27.1115 13 27.3006 13C27.4449 13 27.5892 12.9526 27.7101 12.8545C27.989 12.6283 28.0306 12.2188 27.8044 11.9406C27.7302 11.8489 27.051 11.05 25.9999 11.05C24.9488 11.05 24.2696 11.8489 24.1955 11.9406C23.9705 12.2169 24.0122 12.6205 24.2871 12.848C24.5627 13.0768 24.9703 13.0365 25.2003 12.7648C25.2036 12.7603 25.5559 12.3502 25.9998 12.3502C26.444 12.3501 26.7956 12.7596 26.7956 12.7596Z" fill="black"/>
<path d="M0.653108 8.51503C0.686243 8.84721 0.965794 9.10003 1.29988 9.10003H5.19988C5.53397 9.10003 5.81345 8.84721 5.84666 8.51503L6.49663 2.01505C6.51484 1.83178 6.45504 1.65042 6.33157 1.51392C6.2087 1.37803 6.03389 1.3001 5.84993 1.3001H3.89986V0.649975C3.89986 0.291205 3.60865 0 3.24988 0C2.89111 0 2.59991 0.291205 2.59991 0.649975V1.29995H0.649909C0.465954 1.29995 0.29114 1.37795 0.168274 1.51376C0.0447997 1.65026 -0.0149952 1.83163 0.00320991 2.0149L0.653108 8.51503ZM5.13163 2.59998L4.61161 7.8H1.88808L1.36806 2.59998H5.13163Z" fill="black"/>
<path d="M18.2 14.95C18.2 15.6767 18.497 16.3527 19.0365 16.8526C19.1612 16.9683 19.3199 17.0261 19.4785 17.0261C19.6527 17.0261 19.8269 16.9559 19.955 16.8181C20.1987 16.5548 20.1838 16.1433 19.9205 15.899C19.6488 15.6481 19.5 15.3107 19.5 14.9499C19.5 14.4117 19.8425 13.9236 20.3534 13.7358C20.5653 13.6578 20.7213 13.4751 20.7655 13.2534C20.8104 13.0318 20.7356 12.803 20.5705 12.6489C20.2988 12.398 20.15 12.0607 20.15 11.6999C20.15 11.0239 20.6823 10.4584 21.3615 10.4116C21.6112 10.3947 21.8282 10.2368 21.9212 10.0047C22.0135 9.7727 21.9654 9.50815 21.7964 9.3242C21.5728 9.08045 21.45 8.76974 21.45 8.44997C21.45 7.77395 21.9823 7.20845 22.6616 7.16168C22.9112 7.14477 23.1283 6.98687 23.2212 6.75477C23.3135 6.52275 23.2654 6.25821 23.0964 6.07425C22.8735 5.8305 22.75 5.51979 22.75 5.20003C22.75 4.61891 23.1459 4.10604 23.712 3.95271C23.892 3.90396 24.0415 3.7811 24.1241 3.61535C24.2072 3.4496 24.2151 3.25528 24.1455 3.08367C24.0825 2.92439 24.05 2.76192 24.05 2.60005C24.05 1.88312 24.633 1.30003 25.3501 1.30003C26.067 1.30003 26.6501 1.88304 26.6501 2.60005C26.6501 2.76192 26.6176 2.92439 26.5546 3.08367C26.485 3.25528 26.4928 3.4496 26.576 3.61535C26.6586 3.7811 26.8081 3.90396 26.9881 3.95271C27.5543 4.10612 27.9501 4.61899 27.9501 5.20003C27.9501 5.51979 27.8266 5.8305 27.6037 6.07425C27.4346 6.25821 27.3866 6.52275 27.4789 6.75477C27.5718 6.98679 27.7889 7.14477 28.0385 7.16168C28.7178 7.20845 29.2501 7.77395 29.2501 8.44997C29.2501 8.76974 29.1267 9.08045 28.9037 9.3242C28.7347 9.50815 28.6866 9.7727 28.7789 10.0047C28.8719 10.2367 29.089 10.3947 29.3386 10.4116C30.0178 10.4584 30.5502 11.0239 30.5502 11.6999C30.5502 12.0607 30.4013 12.398 30.1296 12.6489C29.9645 12.803 29.8897 13.0318 29.9346 13.2534C29.9788 13.4751 30.1348 13.6578 30.3474 13.7358C30.8577 13.9236 31.2002 14.4118 31.2002 14.9499C31.2002 15.3087 31.4907 15.5999 31.8502 15.5999C32.2096 15.5999 32.5002 15.3087 32.5002 14.9499C32.5002 14.1582 32.1329 13.4218 31.5356 12.9369C31.741 12.5618 31.8502 12.14 31.8502 11.6999C31.8502 10.6833 31.2522 9.79022 30.3799 9.36769C30.4917 9.07649 30.5502 8.76578 30.5502 8.4499C30.5502 7.43331 29.9522 6.54019 29.08 6.11767C29.1918 5.82646 29.2503 5.51576 29.2503 5.19987C29.2503 4.25214 28.729 3.39612 27.9269 2.94305C27.9425 2.82933 27.9503 2.71492 27.9503 2.59982C27.95 1.16612 26.7839 0 25.35 0C23.916 0 22.75 1.16612 22.75 2.59997C22.75 2.71499 22.7578 2.8294 22.7734 2.94321C21.9713 3.39628 21.45 4.25229 21.45 5.20003C21.45 5.51591 21.5085 5.82662 21.6203 6.11782C20.748 6.54035 20.15 7.43338 20.15 8.45005C20.15 8.76593 20.2085 9.07664 20.3203 9.36785C19.448 9.79037 18.8501 10.6834 18.8501 11.7001C18.8501 12.1401 18.9593 12.562 19.1647 12.937C18.5673 13.4219 18.2 14.1583 18.2 14.95Z" fill="black"/>
<path d="M24.4523 9.04868C24.7825 9.18518 25.1628 9.02789 25.3012 8.69768C25.3136 8.66645 25.3318 8.63202 25.35 8.5982C25.3682 8.63073 25.3851 8.66447 25.3975 8.69502C25.5001 8.94722 25.7433 9.10063 26 9.10063C26.0819 9.10063 26.1644 9.08502 26.2443 9.05188C26.5771 8.91736 26.7377 8.53772 26.6025 8.20561C26.5304 8.02943 26.1339 7.15002 25.3499 7.15002C24.566 7.15002 24.1695 8.0295 24.0973 8.20561C23.9628 8.53643 24.1221 8.91218 24.4523 9.04868Z" fill="black"/>
<path d="M38.3501 37.6998H27.95C27.5906 37.6998 27.3 37.991 27.3 38.3498C27.3 38.7086 27.5906 38.9998 27.95 38.9998H38.35C38.7095 38.9998 39 38.7086 39 38.3498C39 37.991 38.7095 37.6998 38.3501 37.6998Z" fill="black"/>
<path d="M38.3499 28.6001H32.4999V27.9501C32.4999 27.5914 32.2094 27.3002 31.85 27.3002C31.4905 27.3002 31.2 27.5914 31.2 27.9501V28.6001H13V27.9501C13 27.5914 12.7087 27.3002 12.35 27.3002C11.9912 27.3002 11.7 27.5914 11.7 27.9501V28.6001H5.84993C5.49116 28.6001 5.19995 28.8913 5.19995 29.2501V31.8501C5.19995 32.2088 5.49116 32.5 5.84993 32.5H7.79993V35.7501C7.79993 36.1088 8.09113 36.4 8.4499 36.4C8.80867 36.4 9.09987 36.1088 9.09987 35.7501V32.5H35.0999V35.7501C35.0999 36.1088 35.3904 36.4 35.7499 36.4C36.1094 36.4 36.3999 36.1088 36.3999 35.7501V32.5H38.3499C38.7093 32.5 38.9998 32.2088 38.9998 31.8501V29.2501C38.9999 28.8913 38.7094 28.6001 38.3499 28.6001ZM37.6999 31.2001H6.4999V29.9001H37.6999V31.2001Z" fill="black"/>
<path d="M9.74992 37.7001H3.89992V11.0501C3.89992 10.6914 3.60872 10.4001 3.24995 10.4001C2.89118 10.4001 2.59997 10.6914 2.59997 11.0501V37.7001H0.649975C0.291205 37.7001 0 37.9914 0 38.3501C0 38.7089 0.291129 39.0001 0.649898 39.0001H9.74992C10.1087 39.0001 10.3999 38.7089 10.3999 38.3501C10.3999 37.9914 10.1087 37.7001 9.74992 37.7001Z" fill="black"/>
<path d="M25.3499 37.6998H24.0499C23.6904 37.6998 23.3999 37.991 23.3999 38.3498C23.3999 38.7086 23.6904 38.9998 24.0499 38.9998H25.3499C25.7094 38.9998 25.9999 38.7086 25.9999 38.3498C25.9999 37.991 25.7094 37.6998 25.3499 37.6998Z" fill="black"/>
<path d="M20.1499 37.6998H13.65C13.2912 37.6998 13 37.991 13 38.3498C13 38.7086 13.2912 38.9998 13.65 38.9998H20.1499C20.5094 38.9998 20.7999 38.7086 20.7999 38.3499C20.7999 37.9911 20.5094 37.6998 20.1499 37.6998Z" fill="black"/>
</g>
</svg>
