<svg width="40" height="40" viewBox="0 0 40 40" fill="none" xmlns="http://www.w3.org/2000/svg">
<g opacity="0.5" clip-path="url(#clip0)">
<path d="M30.5314 14.6861C30.4624 14.374 30.1541 14.1769 29.8416 14.246C29.5296 14.315 29.3326 14.6238 29.4016 14.9358C29.5417 15.5697 29.6127 16.2229 29.6127 16.8772C29.6127 18.9033 28.9468 20.8275 27.687 22.4418C25.7457 24.929 24.6298 27.9304 24.4542 31.1311H23.9388H23.4104V29.907C23.4104 29.5645 23.1973 29.2714 22.897 29.1517L23.9788 21.104C24.0121 20.8558 23.9087 20.6079 23.7091 20.4572C23.5875 20.3654 23.4426 20.3168 23.2902 20.3168C23.1935 20.3168 23.0996 20.3365 23.012 20.375L21.663 20.9644L20.2726 20.3722C20.0842 20.2922 19.8632 20.3007 19.6826 20.394L18.5299 20.9877L16.9695 20.3667C16.7442 20.2762 16.4762 20.314 16.2838 20.4639C16.0902 20.6148 15.9901 20.8599 16.0226 21.1042L16.4576 24.3398C16.5002 24.6565 16.7919 24.8784 17.1081 24.8361C17.4249 24.7936 17.6471 24.5023 17.6045 24.1856L17.2749 21.7336L18.3467 22.1601C18.5022 22.222 18.6769 22.2135 18.8256 22.1369L20.0195 21.522L21.4393 22.1267C21.5859 22.1891 21.7517 22.1883 21.8977 22.1246L22.7226 21.7641L21.7371 29.0937H18.2642L17.9732 26.9294C17.9306 26.6127 17.6394 26.3909 17.3227 26.4331C17.006 26.4757 16.7837 26.7669 16.8263 27.0836L17.1043 29.1517C16.804 29.2714 16.5909 29.5645 16.5909 29.907V31.1311H16.0626H15.5487C15.3791 27.9986 14.2405 24.9687 12.2502 22.3583C11.0387 20.7695 10.395 18.8843 10.3886 16.9065C10.3724 11.8169 14.6531 7.64685 19.931 7.61091C19.9542 7.61076 19.9769 7.61068 19.9999 7.61068C23.5403 7.61068 26.7792 9.47247 28.4645 12.4814C28.6206 12.7601 28.9733 12.8597 29.252 12.7034C29.5309 12.5473 29.6302 12.1947 29.4742 11.9159C27.5841 8.5413 23.9592 6.45349 20 6.45349C19.9745 6.45349 19.9488 6.45357 19.9232 6.45373C14.0095 6.49404 9.21314 11.1848 9.2315 16.9102C9.23876 19.1423 9.96439 21.2689 11.33 23.06C13.2105 25.5264 14.2722 28.3907 14.4005 31.3434C14.4237 31.8733 14.8631 32.2883 15.401 32.2883H15.4841V37.0842C15.4841 38.1254 16.1085 39.0483 17.075 39.4356C18.0095 39.8101 18.9938 40 20.0006 40C21.0074 40 21.9917 39.8101 22.9263 39.4356C23.8928 39.0483 24.5173 38.1253 24.5173 37.0842V32.2883H24.6018C25.1389 32.2883 25.5783 31.8743 25.602 31.3458C25.7373 28.3254 26.7737 25.4926 28.599 23.1537C30.0192 21.334 30.7698 19.1637 30.7698 16.8772C30.7699 16.139 30.6896 15.4018 30.5314 14.6861ZM17.7481 30.2509H22.2533V31.1311H17.7481V30.2509ZM16.6412 32.2883H23.3602V33.4813H16.6412V32.2883ZM16.6412 34.6385H23.3602V35.4228H16.6412V34.6385ZM23.3602 37.0842C23.3602 37.6497 23.021 38.1511 22.4959 38.3615C21.6989 38.6809 20.8594 38.8429 20.0007 38.8429C19.142 38.8429 18.3025 38.6809 17.5055 38.3615C16.9805 38.1511 16.6413 37.6497 16.6413 37.0842V36.58H23.3602V37.0842Z" fill="black"/>
<path d="M38.1388 18.1389H34.5163C34.1967 18.1389 33.9377 18.398 33.9377 18.7175C33.9377 19.037 34.1967 19.2961 34.5163 19.2961H38.1388C38.4584 19.2961 38.7174 19.037 38.7174 18.7175C38.7174 18.398 38.4584 18.1389 38.1388 18.1389Z" fill="black"/>
<path d="M5.48364 18.1389H1.86106C1.54146 18.1389 1.28247 18.398 1.28247 18.7175C1.28247 19.037 1.54146 19.2961 1.86106 19.2961H5.48364C5.80325 19.2961 6.06224 19.037 6.06224 18.7175C6.06224 18.398 5.80325 18.1389 5.48364 18.1389Z" fill="black"/>
<path d="M33.2353 31.1345L30.6738 28.573C30.4478 28.3471 30.0815 28.3471 29.8555 28.573C29.6296 28.799 29.6296 29.1653 29.8555 29.3912L32.417 31.9527C32.53 32.0657 32.6781 32.1222 32.8262 32.1222C32.9742 32.1222 33.1224 32.0657 33.2353 31.9527C33.4613 31.7268 33.4613 31.3604 33.2353 31.1345Z" fill="black"/>
<path d="M10.1444 8.04376L7.58295 5.4822C7.35693 5.25626 6.99068 5.25626 6.76467 5.4822C6.53873 5.70813 6.53873 6.07446 6.76467 6.3004L9.32615 8.86196C9.43912 8.97493 9.58716 9.03142 9.73529 9.03142C9.88334 9.03142 10.0315 8.97493 10.1444 8.86196C10.3704 8.63603 10.3704 8.2697 10.1444 8.04376Z" fill="black"/>
<path d="M33.2353 5.48227C33.0094 5.25625 32.6431 5.25625 32.417 5.48219L29.8555 8.04375C29.6296 8.26969 29.6296 8.63602 29.8555 8.86195C29.9685 8.97492 30.1165 9.03141 30.2646 9.03141C30.4127 9.03141 30.5608 8.97492 30.6738 8.86195L33.2353 6.30047C33.4613 6.07453 33.4613 5.7082 33.2353 5.48227Z" fill="black"/>
<path d="M10.1444 28.573C9.91842 28.3471 9.55217 28.3471 9.32615 28.573L6.76467 31.1345C6.53873 31.3604 6.53873 31.7268 6.76467 31.9527C6.87764 32.0657 7.02576 32.1222 7.17381 32.1222C7.32185 32.1222 7.46998 32.0657 7.58295 31.9527L10.1444 29.3912C10.3704 29.1653 10.3704 28.799 10.1444 28.573Z" fill="black"/>
<path d="M20 0C19.6804 0 19.4214 0.259062 19.4214 0.578594V4.20109C19.4215 4.52063 19.6804 4.77969 20 4.77969C20.3196 4.77969 20.5786 4.52063 20.5786 4.20109V0.578594C20.5786 0.259062 20.3196 0 20 0Z" fill="black"/>
</g>
<defs>
<clipPath id="clip0">
<rect width="40" height="40" fill="white"/>
</clipPath>
</defs>
</svg>
