<svg width="40" height="40" viewBox="0 0 40 40" fill="none" xmlns="http://www.w3.org/2000/svg">
<g opacity="0.5" clip-path="url(#clip0)">
<path d="M19.9219 8.55225C18.642 8.55225 17.6047 9.58984 17.6047 10.8698C17.6047 12.1494 18.642 13.187 19.9219 13.187C21.2018 13.187 22.2391 12.1494 22.2391 10.8698C22.2391 9.58984 21.2018 8.55225 19.9219 8.55225ZM19.9219 12.0142C19.2899 12.0142 18.7775 11.5018 18.7775 10.8698C18.7775 10.2377 19.2899 9.72534 19.9219 9.72534C20.554 9.72534 21.0663 10.2377 21.0663 10.8698C21.0663 11.5018 20.554 12.0142 19.9219 12.0142Z" fill="black"/>
<path d="M26.5782 29.7401C26.5764 29.7309 26.5742 29.7217 26.5718 29.7126L24.6345 21.3642C24.6333 21.3575 24.6318 21.3508 24.6299 21.3441L23.5106 16.5198C23.723 16.3853 23.928 16.2385 24.1246 16.0795C25.2916 15.1371 26.1165 13.8172 26.4479 12.3627C26.5199 12.0472 26.3224 11.7329 26.0066 11.6608C25.691 11.5888 25.377 11.7866 25.305 12.1021C25.0319 13.3011 24.351 14.3897 23.3879 15.1676C23.1376 15.3696 22.874 15.5475 22.5993 15.7011C22.5865 15.7068 22.574 15.713 22.5618 15.7197C21.7854 16.1433 20.9086 16.374 20.0196 16.3898C19.9568 16.3907 19.8939 16.3907 19.8314 16.3898C19.2897 16.381 18.7526 16.2922 18.2399 16.1286C16.0154 15.4157 14.4011 13.3277 14.4011 10.8695C14.4011 7.82538 16.8776 5.34857 19.922 5.34857C21.1976 5.34857 22.3954 5.77124 23.386 6.5705C24.3489 7.34717 25.0297 8.43481 25.3038 9.63263C25.3761 9.94818 25.6907 10.1453 26.006 10.0733C26.3215 10.0013 26.519 9.68695 26.4467 9.3714C26.1143 7.91815 25.2888 6.59949 24.1224 5.65833C22.938 4.70282 21.4463 4.17639 19.922 4.17639C16.2312 4.17639 13.2286 7.17902 13.2286 10.8698C13.2286 13.2413 14.4685 15.3287 16.334 16.518L15.2147 21.3413C15.2125 21.3496 15.2107 21.3581 15.2089 21.3663L14.6873 23.6143C14.6141 23.9295 14.8103 24.2444 15.1258 24.3177C15.4411 24.3909 15.756 24.1944 15.8293 23.8792L16.2483 22.0734H23.5957L25.2665 29.2731H14.5774L15.1945 26.6141C15.2678 26.2989 15.0715 25.9839 14.756 25.9107C14.4404 25.8375 14.1258 26.034 14.0525 26.3492L13.3052 29.5698C13.2566 29.6552 13.2286 29.7541 13.2286 29.8594C13.2286 29.8713 13.2292 29.8832 13.2298 29.8948L11.2886 38.2603C11.1936 38.6689 11.2892 39.0919 11.5501 39.4202C11.811 39.7486 12.2013 39.9372 12.621 39.9372H19.7477C20.0715 39.9372 20.3337 39.6747 20.3337 39.351C20.3337 39.0272 20.0715 38.7647 19.7477 38.7647H12.621C12.5389 38.7647 12.49 38.7186 12.4681 38.6909C12.4461 38.6634 12.4122 38.6051 12.4305 38.5252L14.3055 30.4456H25.5385L27.4135 38.5252C27.4321 38.6051 27.3982 38.6634 27.3759 38.6909C27.3542 38.7186 27.3051 38.7647 27.223 38.7647H22.483C22.1592 38.7647 21.8968 39.0272 21.8968 39.351C21.8968 39.6747 22.1592 39.9372 22.483 39.9372H27.223C27.6426 39.9372 28.033 39.7486 28.2939 39.4202C28.5548 39.0916 28.6503 38.6689 28.5554 38.2603L26.5782 29.7401ZM16.5202 20.9012L17.4086 17.074C17.5242 17.1207 17.6414 17.1644 17.7595 17.2047C18.4016 17.4244 19.0876 17.5492 19.8002 17.562C19.9134 17.5635 20.0267 17.5632 20.1399 17.5596C20.9288 17.5336 21.7079 17.3682 22.4357 17.074L23.3238 20.9012H16.5202Z" fill="black"/>
<path d="M11.2747 12.7172C9.95875 11.3681 9.96607 9.1653 11.2905 7.80727C11.5167 7.57533 11.5118 7.20424 11.2802 6.97841C11.0482 6.75228 10.6771 6.75716 10.4513 6.98879C8.68647 8.79817 8.67945 11.7352 10.4354 13.5357C10.5502 13.6535 10.7025 13.7127 10.855 13.7127C11.0028 13.7127 11.1505 13.6572 11.2643 13.5461C11.4959 13.32 11.5005 12.9489 11.2747 12.7172Z" fill="black"/>
<path d="M7.86084 3.47193C7.6289 3.2458 7.25781 3.25037 7.03198 3.48231C3.37078 7.23627 3.35492 13.3282 6.99627 17.062C7.11132 17.1798 7.26361 17.239 7.41619 17.239C7.56359 17.239 7.7113 17.1838 7.82544 17.0724C8.05706 16.8466 8.06164 16.4755 7.83581 16.2438C4.63421 12.9611 4.65039 7.6034 7.87091 4.30079C8.09704 4.06916 8.09246 3.69807 7.86084 3.47193Z" fill="black"/>
<path d="M4.79978 1.15186C5.02591 0.91993 5.02134 0.548836 4.7894 0.323006C4.55747 0.0968704 4.18638 0.101448 3.96055 0.333382C-1.40353 5.83387 -1.42733 14.759 3.90745 20.2296C4.0225 20.3471 4.17478 20.4063 4.32706 20.4063C4.47477 20.4063 4.62247 20.3511 4.7363 20.24C4.96824 20.0139 4.97281 19.6428 4.74668 19.4111C-0.148035 14.3919 -0.124231 6.201 4.79978 1.15186Z" fill="black"/>
<path d="M28.5795 7.01665C28.3479 7.24248 28.3433 7.61357 28.5691 7.8452C29.885 9.19468 29.8777 11.3971 28.5532 12.7552C28.3271 12.9868 28.332 13.3579 28.5636 13.584C28.6778 13.6951 28.8255 13.7503 28.9729 13.7503C29.1254 13.7503 29.2777 13.6915 29.3925 13.5737C31.1573 11.7643 31.1643 8.82725 29.4083 7.02672C29.1825 6.79509 28.8114 6.79051 28.5795 7.01665Z" fill="black"/>
<path d="M32.8477 3.50037C32.6215 3.26844 32.2504 3.26386 32.0188 3.49C31.7869 3.71583 31.7823 4.08692 32.0084 4.31886C35.2097 7.60133 35.1939 12.959 31.973 16.2616C31.7469 16.4935 31.7515 16.8646 31.9834 17.0905C32.0972 17.2019 32.2449 17.2571 32.3923 17.2571C32.5449 17.2571 32.6972 17.1979 32.8123 17.0801C36.4732 13.3261 36.489 7.2342 32.8477 3.50037Z" fill="black"/>
<path d="M35.9363 0.333391C35.7102 0.101763 35.3391 0.09688 35.1074 0.323015C34.8755 0.548845 34.8709 0.919939 35.0971 1.15187C39.9918 6.17079 39.968 14.362 35.044 19.4108C34.8178 19.6428 34.8227 20.0139 35.0543 20.2397C35.1685 20.3511 35.3162 20.4063 35.4636 20.4063C35.6162 20.4063 35.7685 20.3471 35.8832 20.2293C41.2473 14.7291 41.2711 5.80367 35.9363 0.333391Z" fill="black"/>
</g>
<defs>
<clipPath id="clip0">
<rect width="40" height="40" fill="white"/>
</clipPath>
</defs>
</svg>
