<svg width="46" height="46" viewBox="0 0 46 46" fill="none" xmlns="http://www.w3.org/2000/svg">
<g opacity="0.5" clip-path="url(#clip0)">
<path d="M44.3654 10.3958H41.176C40.8138 10.3958 40.5202 10.6894 40.5202 11.0516C40.5202 11.4139 40.8138 11.7075 41.176 11.7075H44.3654C44.5435 11.7075 44.6883 11.8521 44.6883 12.03V18.91H34.5109V17.1734C34.5109 16.906 34.3519 16.6656 34.106 16.5607C33.8601 16.4556 33.5767 16.5079 33.3836 16.6931L13.5668 35.7352H5.73823V32.3556C5.73823 31.9934 5.44462 31.6998 5.08237 31.6998C4.72012 31.6998 4.42651 31.9934 4.42651 32.3556V35.8463C4.42651 36.5083 4.96513 37.0468 5.6271 37.0468H13.6114C13.9232 37.0468 14.2187 36.9279 14.4433 36.7119L33.1992 18.6892V18.9212C33.1992 19.6382 33.7825 20.2214 34.4996 20.2214H44.6995C45.4166 20.2214 45.9999 19.6382 45.9999 18.9212V12.0298C45.9999 11.1289 45.2666 10.3958 44.3654 10.3958Z" fill="black"/>
<path d="M38.0535 10.3954H34.1452C33.8283 10.3954 33.5203 10.4866 33.2514 10.6614L14.4781 23.0185V18.4938C14.4781 17.0619 13.3128 15.8968 11.8806 15.8968H11.7181V14.3818H11.7843C12.298 14.3818 12.7215 13.9891 12.7709 13.4881L16.4548 13.8879C16.5356 13.8967 16.6175 13.9011 16.6983 13.9011C17.9284 13.9011 18.9292 12.8989 18.9292 11.6674C18.9292 10.4357 17.9284 9.43376 16.6983 9.43376C16.6175 9.43376 16.5356 9.43816 16.4548 9.44696L12.7709 9.84668C12.7216 9.34571 12.298 8.953 11.7843 8.953H7.14482C6.6311 8.953 6.20748 9.34571 6.15816 9.84668L2.4743 9.44696C2.39353 9.43816 2.31159 9.43376 2.23082 9.43376C1.00077 9.43376 0 10.4359 0 11.6675C0 12.899 1.00077 13.9011 2.23082 13.9011C2.31159 13.9011 2.39353 13.8967 2.4743 13.8879L6.15816 13.4881C6.20757 13.989 6.63119 14.3818 7.14482 14.3818H7.21095V15.8968H7.02416C5.59187 15.8968 4.4266 17.0618 4.4266 18.4938V29.2284C4.4266 29.5907 4.72021 29.8843 5.08246 29.8843C5.44471 29.8843 5.73832 29.5907 5.73832 29.2284V18.4937C5.73832 17.785 6.31512 17.2085 7.02425 17.2085H11.8806C12.5896 17.2085 13.1664 17.7851 13.1664 18.4937V24.2352C13.1664 24.4763 13.2988 24.698 13.5111 24.8125C13.7235 24.9269 13.9814 24.9156 14.1828 24.7829L33.9693 11.7592C34.0217 11.7252 34.0825 11.7072 34.1452 11.7072H38.0535C38.4157 11.7072 38.7094 11.4136 38.7094 11.0513C38.7094 10.6891 38.4157 10.3954 38.0535 10.3954ZM16.5962 10.7509C16.6302 10.7472 16.6645 10.7453 16.6983 10.7453C17.2052 10.7453 17.6175 11.1589 17.6175 11.6674C17.6175 12.1757 17.2052 12.5893 16.6983 12.5893C16.6646 12.5893 16.6302 12.5875 16.5963 12.5838L12.776 12.1691V11.1655H12.7759L16.5962 10.7509ZM2.33288 12.5839C2.29892 12.5876 2.2646 12.5895 2.23082 12.5895C1.72401 12.5895 1.31163 12.1759 1.31163 11.6675C1.31163 11.1591 1.72401 10.7455 2.23082 10.7455C2.26451 10.7455 2.29892 10.7474 2.33279 10.751L6.15313 11.1657V12.1693H6.15322L2.33288 12.5839ZM10.4065 15.886H8.52267V14.3818H10.4065V15.886ZM11.4642 10.577V12.7579V13.0702H11.0623H7.86681H7.46485V12.7579V10.577V10.2647H11.4642V10.577Z" fill="black"/>
<path d="M42.3606 25.9626C41.8325 25.048 41.2862 24.1023 40.9611 23.313C40.8015 22.9259 40.4278 22.6757 40.0091 22.6757C39.5905 22.6757 39.2168 22.9259 39.0572 23.3132C38.7321 24.1024 38.1858 25.0482 37.6576 25.9627C36.721 27.5842 35.8364 29.1158 35.8364 30.2535C35.8364 32.5543 37.7082 34.4262 40.0091 34.4262C42.31 34.4262 44.1818 32.5544 44.1818 30.2535C44.1818 29.1158 43.2972 27.5842 42.3606 25.9626ZM40.0091 33.1144C38.4316 33.1144 37.1481 31.831 37.1481 30.2535C37.1481 29.4675 38.0222 27.954 38.7935 26.6187C39.2238 25.8737 39.6657 25.1086 40.0092 24.3941C40.3528 25.1086 40.7945 25.8736 41.2249 26.6186C41.9962 27.954 42.8703 29.4674 42.8703 30.2535C42.8702 31.8311 41.5867 33.1144 40.0091 33.1144Z" fill="black"/>
</g>
<defs>
<clipPath id="clip0">
<rect width="46" height="46" fill="white"/>
</clipPath>
</defs>
</svg>
