<svg width="42" height="42" viewBox="0 0 42 42" fill="none" xmlns="http://www.w3.org/2000/svg">
<g opacity="0.5">
<path d="M33.8725 42H5.34315C5.17187 42 5.01066 41.9201 4.90706 41.7836C4.80345 41.6474 4.76972 41.4704 4.81572 41.3054L7.01987 33.3895C5.07396 31.0894 3.9582 28.1088 3.84364 24.9153H2.84813C2.54564 24.9153 2.30054 24.6702 2.30054 24.3677V23.9844C2.30054 22.6859 3.35672 21.6297 4.65517 21.6297H23.6328C24.8112 21.6297 25.7903 22.5 25.9609 23.6315C26.2523 23.4819 26.4998 23.2482 26.6735 22.9479C26.8187 22.6969 26.8953 22.388 26.8953 22.0547V6.18774H26.4663C26.1638 6.18774 25.9187 5.94264 25.9187 5.64016V4.05215C25.9187 3.11621 26.6803 2.35463 27.6162 2.35463H31.2033C31.1264 2.15947 31.0844 1.947 31.0844 1.7249C31.0844 0.773632 31.8582 0 32.8093 0C33.7603 0 34.5342 0.773632 34.5342 1.7249C34.5342 1.947 34.4919 2.15947 34.4153 2.35463H38.0024C38.9383 2.35463 39.6999 3.11621 39.6999 4.05215V5.64016C39.6999 5.94264 39.4548 6.18774 39.1523 6.18774H38.7232V20.5245C38.7232 22.1589 38.2094 23.5776 37.1059 24.9893C36.9344 25.209 36.7359 25.455 36.5395 25.6985C36.3763 25.9007 36.2144 26.1011 36.0712 26.2827C35.9257 26.4671 35.7728 26.6533 35.6158 26.8445C34.527 28.1695 33.2931 29.6712 32.9935 32.5826C32.7427 35.0209 34.3401 41.1009 34.3563 41.1618L34.3966 41.2932C34.447 41.4592 34.4159 41.639 34.3125 41.7786C34.2089 41.9179 34.0457 42 33.8725 42ZM6.064 40.9048H33.1604C32.7589 39.2971 31.6769 34.6779 31.904 32.4707C32.2372 29.2311 33.6412 27.5222 34.7694 26.1493C34.9217 25.964 35.0702 25.7835 35.2112 25.6048C35.3569 25.4201 35.5212 25.2164 35.687 25.011C35.8797 24.7718 36.0747 24.5306 36.2431 24.3151C37.188 23.106 37.6281 21.9016 37.6281 20.5245V6.18774H27.9905V22.0544C27.9905 22.5801 27.8628 23.0789 27.6214 23.4961C27.1959 24.2319 26.4652 24.7335 25.6468 24.8747C25.5829 24.9008 25.513 24.9153 25.4399 24.9153H4.93925C5.05644 27.9456 6.14504 30.7596 8.03488 32.889C8.03554 32.8899 8.03641 32.891 8.03729 32.8919C8.0397 32.8945 8.04189 32.8971 8.04408 32.8997C8.08372 32.946 10.7345 35.9765 15.8019 35.9765C16.1044 35.9765 16.3495 36.2216 16.3495 36.5241C16.3495 36.8266 16.1044 37.0717 15.8019 37.0717C11.7074 37.0717 9.07573 35.3019 7.90565 34.2902L6.064 40.9048ZM4.38115 23.8201H24.8813C24.8005 23.2031 24.2713 22.7249 23.6326 22.7249H4.65495C4.01602 22.7249 3.48683 23.2031 3.40623 23.8201H4.38115ZM38.1754 5.09257H38.6045V4.05215C38.6045 3.71987 38.3345 3.4498 38.0022 3.4498H27.616C27.2839 3.4498 27.0136 3.71987 27.0136 4.05215V5.09257H38.1754ZM32.8091 1.09518C32.4619 1.09518 32.1793 1.37773 32.1793 1.7249C32.1793 2.07207 32.4619 2.35463 32.8091 2.35463C33.1562 2.35463 33.4388 2.07207 33.4388 1.7249C33.4388 1.37773 33.1565 1.09518 32.8091 1.09518Z" fill="black"/>
</g>
</svg>
